<svg width="190" height="190" viewBox="0 0 190 190" fill="none" xmlns="http://www.w3.org/2000/svg">
<path d="M4.3934 163.963C-1.46447 169.821 -1.46447 179.319 4.3934 185.176C10.2513 191.034 19.7487 191.034 25.6066 185.176L4.3934 163.963ZM185.176 25.6066C191.034 19.7487 191.034 10.2513 185.176 4.3934C179.319 -1.46447 169.821 -1.46447 163.963 4.3934L185.176 25.6066ZM25.8198 4.3934C19.9619 -1.46447 10.4645 -1.46447 4.6066 4.3934C-1.25126 10.2513 -1.25126 19.7487 4.6066 25.6066L25.8198 4.3934ZM164.176 185.176C170.034 191.034 179.532 191.034 185.39 185.176C191.247 179.319 191.247 169.821 185.39 163.963L164.176 185.176ZM25.6066 185.176L185.176 25.6066L163.963 4.3934L4.3934 163.963L25.6066 185.176ZM4.6066 25.6066L164.176 185.176L185.39 163.963L25.8198 4.3934L4.6066 25.6066Z" fill="black"/>
</svg>
