<svg width="694" height="466" viewBox="0 0 694 466" fill="none" xmlns="http://www.w3.org/2000/svg">
<rect x="60.5" y="183.5" width="574" height="265" rx="28.5" stroke="black" stroke-width="35"/>
<path d="M344.498 343.273L116.45 190.74C115.219 189.917 114.798 189.127 114.603 188.522C114.363 187.779 114.317 186.775 114.646 185.693C114.975 184.61 115.571 183.801 116.183 183.317C116.681 182.923 117.47 182.5 118.952 182.5L575.048 182.5C576.53 182.5 577.319 182.923 577.817 183.317C578.429 183.801 579.025 184.61 579.354 185.693C579.683 186.775 579.637 187.779 579.397 188.522C579.202 189.127 578.781 189.917 577.55 190.74L349.502 343.273C347.988 344.286 346.012 344.286 344.498 343.273Z" stroke="black" stroke-width="35"/>
<path d="M349.502 22.7271L577.55 175.26C578.781 176.083 579.202 176.873 579.397 177.478C579.637 178.221 579.683 179.225 579.354 180.307C579.025 181.39 578.429 182.199 577.817 182.683C577.319 183.077 576.53 183.5 575.048 183.5H118.952C117.47 183.5 116.681 183.077 116.183 182.683C115.571 182.199 114.975 181.39 114.646 180.307C114.317 179.225 114.363 178.221 114.603 177.478C114.798 176.873 115.219 176.083 116.45 175.26L344.498 22.7271C346.012 21.7143 347.988 21.7143 349.502 22.7271Z" stroke="black" stroke-width="35"/>
</svg>